# This file uses centimeters as units for non-parametric coordinates.

mtllib Crystal.mtl
g default
v -0.388860 -0.500000 0.388860
v 0.388860 -0.500000 0.388860
v -0.223082 0.500000 0.644153
v 0.206880 0.500000 0.644153
v -0.223620 0.500000 -0.476579
v 0.178287 0.500000 -0.500014
v -0.388860 -0.500000 -0.480285
v 0.388860 -0.500000 -0.480285
v 0.126364 1.467992 0.405337
v 0.155991 1.091730 -0.314295
v -0.365387 0.572189 0.072519
v 0.171526 1.654448 0.007625
v 0.833023 0.572189 0.072519
v 0.682162 -0.785209 0.053216
v -0.527838 -0.785209 0.053216
v -0.012928 -1.119594 0.053216
v -0.213074 0.349176 0.545823
v 0.217497 0.349176 0.545823
v 0.730900 0.365176 0.067925
v 0.195865 0.349176 -0.532106
v -0.213480 0.349176 -0.514376
v -0.576576 0.365176 0.067925
v -0.319177 -0.401506 0.362932
v 0.335938 -0.401506 0.362932
v 0.624212 -0.621337 0.045911
v 0.333398 -0.401506 -0.522805
v -0.319225 -0.401506 -0.520724
v -0.469888 -0.621337 0.045911
vt 0.375000 0.000000
vt 0.625000 0.000000
vt 0.375000 0.250000
vt 0.625000 0.250000
vt 0.375000 0.500000
vt 0.625000 0.500000
vt 0.375000 0.750000
vt 0.625000 0.750000
vt 0.375000 1.000000
vt 0.625000 1.000000
vt 0.875000 0.000000
vt 0.875000 0.250000
vt 0.125000 0.000000
vt 0.125000 0.250000
vt 0.545408 0.310506
vt 0.542696 0.456766
vt 0.265994 0.250000
vt 0.375000 0.359006
vt 0.544226 0.374279
vt 0.625000 0.359006
vt 0.734006 0.250000
vt 0.625000 0.890994
vt 0.734006 0.000000
vt 0.265994 0.000000
vt 0.375000 0.890994
vt 0.496938 0.890994
vt 0.375000 0.212052
vt 0.625000 0.212052
vt 0.734006 0.212052
vt 0.625000 0.537948
vt 0.875000 0.212052
vt 0.125000 0.212052
vt 0.375000 0.537948
vt 0.265994 0.212052
vt 0.375000 0.027824
vt 0.625000 0.027824
vt 0.734006 0.027824
vt 0.625000 0.722176
vt 0.875000 0.027824
vt 0.125000 0.027824
vt 0.375000 0.722176
vt 0.265994 0.027824
vn 0.000000 -0.546140 0.837694
vn 0.000000 -0.546140 0.837694
vn 0.000000 -0.546140 0.837694
vn 0.000000 -0.546140 0.837694
vn -0.049423 0.221126 -0.973992
vn -0.049423 0.221126 -0.973992
vn -0.049423 0.221126 -0.973992
vn -0.049423 0.221126 -0.973992
vn -0.469032 -0.722249 -0.508297
vn -0.469032 -0.722249 -0.508297
vn -0.469032 -0.722249 -0.508297
vn 0.702367 -0.093602 -0.705634
vn 0.702367 -0.093602 -0.705634
vn 0.702367 -0.093602 -0.705634
vn 0.702367 -0.093602 -0.705634
vn -0.783365 0.486031 -0.387444
vn -0.783365 0.486031 -0.387444
vn -0.783365 0.486031 -0.387444
vn -0.783365 0.486031 -0.387444
vn 0.000000 0.239531 0.970889
vn 0.000000 0.239531 0.970889
vn 0.000000 0.239531 0.970889
vn 0.620164 0.256091 -0.741495
vn 0.620164 0.256091 -0.741495
vn 0.620164 0.256091 -0.741495
vn -0.055584 0.297085 -0.953232
vn -0.055584 0.297085 -0.953232
vn -0.055584 0.297085 -0.953232
vn -0.755188 0.341087 -0.559777
vn -0.755188 0.341087 -0.559777
vn -0.755188 0.341087 -0.559777
vn -0.883016 0.384997 0.268441
vn -0.883016 0.384997 0.268441
vn -0.883016 0.384997 0.268441
vn 0.797109 0.506885 0.328155
vn 0.797109 0.506885 0.328155
vn 0.797109 0.506885 0.328155
vn 0.647190 -0.358943 0.672536
vn 0.647190 -0.358943 0.672536
vn 0.647190 -0.358943 0.672536
vn 0.647190 -0.358943 0.672536
vn -0.225360 -0.347026 0.910377
vn -0.225360 -0.347026 0.910377
vn -0.225360 -0.347026 0.910377
vn -0.833904 0.344900 0.430869
vn -0.833904 0.344900 0.430869
vn -0.833904 0.344900 0.430869
vn -0.833904 0.344900 0.430869
vn -0.773279 0.571436 -0.274773
vn -0.773279 0.571436 -0.274773
vn -0.773279 0.571436 -0.274773
vn 0.655860 0.361126 -0.662899
vn 0.655860 0.361126 -0.662899
vn 0.655860 0.361126 -0.662899
vn 0.640721 0.233724 0.731334
vn 0.640721 0.233724 0.731334
vn 0.640721 0.233724 0.731334
vn -0.887895 0.447009 0.108743
vn -0.887895 0.447009 0.108743
vn -0.887895 0.447009 0.108743
vn 0.351796 -0.731283 -0.584350
vn 0.351796 -0.731283 -0.584350
vn 0.351796 -0.731283 -0.584350
vn 0.285229 -0.592908 0.753063
vn 0.285229 -0.592908 0.753063
vn 0.285229 -0.592908 0.753063
vn 0.000000 -0.762038 0.647532
vn 0.000000 -0.762038 0.647532
vn 0.000000 -0.762038 0.647532
vn 0.000000 -0.652496 -0.757792
vn 0.000000 -0.652496 -0.757792
vn 0.000000 -0.652496 -0.757792
vn 0.000000 -0.236709 0.971581
vn 0.000000 -0.236709 0.971581
vn 0.000000 -0.236709 0.971581
vn 0.000000 -0.236709 0.971581
vn 0.691520 -0.080000 0.717913
vn 0.691520 -0.080000 0.717913
vn 0.691520 -0.080000 0.717913
vn 0.691520 -0.080000 0.717913
vn 0.818081 0.018732 -0.574798
vn 0.818081 0.018732 -0.574798
vn 0.818081 0.018732 -0.574798
vn 0.818081 0.018732 -0.574798
vn -0.018652 -0.002362 -0.999823
vn -0.018652 -0.002362 -0.999823
vn -0.018652 -0.002362 -0.999823
vn -0.018652 -0.002362 -0.999823
vn -0.913278 0.006153 -0.407290
vn -0.913278 0.006153 -0.407290
vn -0.913278 0.006153 -0.407290
vn -0.913278 0.006153 -0.407290
vn -0.830077 -0.065598 0.553777
vn -0.830077 -0.065598 0.553777
vn -0.830077 -0.065598 0.553777
vn -0.830077 -0.065598 0.553777
vn 0.000000 0.254570 0.967054
vn 0.000000 0.254570 0.967054
vn 0.000000 0.254570 0.967054
vn 0.000000 0.254570 0.967054
vn 0.816028 0.397940 0.419216
vn 0.816028 0.397940 0.419216
vn 0.816028 0.397940 0.419216
vn 0.816028 0.397940 0.419216
vn 0.889433 0.323068 -0.323321
vn 0.889433 0.323068 -0.323321
vn 0.889433 0.323068 -0.323321
vn 0.889433 0.323068 -0.323321
vn -0.001341 -0.388043 -0.921640
vn -0.001341 -0.388043 -0.921641
vn -0.001341 -0.388043 -0.921640
vn -0.001341 -0.388043 -0.921641
vn -0.901409 0.431174 -0.039381
vn -0.901409 0.431174 -0.039381
vn -0.901409 0.431174 -0.039381
vn -0.901409 0.431174 -0.039381
vn -0.895127 0.442411 0.054964
vn -0.895127 0.442411 0.054964
vn -0.895127 0.442411 0.054964
vn -0.895127 0.442411 0.054964
s off
g Crystal
usemtl phong1SG
f 17/27/1 18/28/2 4/4/3 3/3/4
f 5/5/5 6/6/6 20/30/7 21/33/8
f 7/7/9 16/26/10 15/25/11
f 13/21/12 19/29/13 20/31/14 6/12/15
f 21/32/16 22/34/17 11/17/18 5/14/19
f 3/3/20 4/4/21 9/15/22
f 10/16/23 13/20/24 6/6/25
f 6/6/26 5/5/27 10/16/28
f 10/16/29 11/18/30 12/19/31
f 9/15/32 11/18/33 3/3/34
f 9/15/35 13/20/36 12/19/37
f 18/28/38 19/29/39 13/21/40 4/4/41
f 15/25/42 16/26/43 2/10/44
f 11/17/45 22/34/46 17/27/47 3/3/48
f 5/5/49 11/18/50 10/16/51
f 12/19/52 13/20/53 10/16/54
f 4/4/55 13/20/56 9/15/57
f 12/19/58 11/18/59 9/15/60
f 16/26/61 8/8/62 14/22/63
f 2/10/64 16/26/65 14/22/66
f 15/25/67 2/10/68 1/9/69
f 7/7/70 8/8/71 16/26/72
f 23/35/73 24/36/74 18/28/75 17/27/76
f 24/36/77 25/37/78 19/29/79 18/28/80
f 20/31/81 19/29/82 25/37/83 26/39/84
f 21/33/85 20/30/86 26/38/87 27/41/88
f 27/40/89 28/42/90 22/34/91 21/32/92
f 17/27/93 22/34/94 28/42/95 23/35/96
f 1/1/97 2/2/98 24/36/99 23/35/100
f 2/2/101 14/23/102 25/37/103 24/36/104
f 26/39/105 25/37/106 14/23/107 8/11/108
f 27/41/109 26/38/110 8/8/111 7/7/112
f 7/13/113 15/24/114 28/42/115 27/40/116
f 23/35/117 28/42/118 15/24/119 1/1/120
